<svg xmlns="http://www.w3.org/2000/svg" viewBox="0 0 1761.8 723.49"><defs><style>.cls-1{fill:#4d9645;}</style></defs><g id="Layer_2" data-name="Layer 2"><g id="Layer_1-2" data-name="Layer 1"><path class="cls-1" d="M793.89,100.92l8-17h1.44c.13,1.45.72,3,.31,4.32-1.53,4.71-3.4,9.32-5.12,14-.49,1.33-.9,2.68-1.34,4l1.4.71,6.94-12.09,1.48.47a23.25,23.25,0,0,1-.39,3.75c-2.23,8.11-4.36,16.26-6.91,24.28-.88,2.77-2.28,5.89-4.44,7.64-8.08,6.56-13.27,15.25-18.73,23.77-6.85,10.71-13.29,21.81-23.64,29.62-5,3.79-10.68,6.75-16.16,9.89a4.72,4.72,0,0,1-3.69.06c-12-5.29-23.92-10.58-35.74-16.18-5.14-2.43-10-5.55-15.26-8.56-6.33,12.17-16.47,18.91-28.21,23.69-10.42,4.24-20.81,8.58-31.26,12.75-15,6-28.51,14.48-41.83,23.4-3.51,2.35-2.51,4.24-.41,6.92,12.3,15.73,24.67,31.41,36.56,47.45,4.38,5.9,7.48,12.74,11.24,19.11,1.92,3.24,3.82,6.52,6,9.55,9.55,13,6.75,30-6.84,38.46-16.81,10.48-35.26,15.65-55,18-12,1.44-23.62,5.81-35.36,9-3.48.95-6.76,2.6-10.21,3.67-14,4.31-18.67,15.64-21.27,28.43a9.4,9.4,0,0,0,.69,4.81q26.13,70.32,52.38,140.6c.21.56.53,1.08,1.38,2.77,23.66-63.64,47-126.44,70.44-189.47h29c-3.3,8.65-6.47,17.06-9.71,25.45q-30.78,79.44-61.58,158.89c-5,12.78-10.11,25.48-14.93,38.31-1,2.8-2.45,3.61-5.28,3.49-5.29-.22-10.61-.29-15.9,0-3.28.19-4.6-1-5.76-4q-28-72.29-56.23-144.48-14.26-36.63-28.46-73.29c-.53-1.37-1-2.76-1.62-4.44,20.75-.17,39.43-7.26,58.25-14,6.7-2.4,12.74-5.13,18.31-9.9,9.55-8.18,21.41-12.11,33.52-15.2a98.88,98.88,0,0,0,13.55-4.74c.78-.33,1.46-2.79,1-3.72-1.39-3-3.32-5.72-5.78-9.77,3.15,1.34,5.43,1.92,7.27,3.15,8.29,5.55,16.46,11.28,24.68,16.95l4,2.7,1.24-.5c-1.19-6.08-2.34-12.18-3.6-18.24-3.93-18.89-13.39-35-24.59-50.46-8.25-11.34-16.85-22.64-23.41-35-8.7-16.35-11.26-34.05-4.16-52,4.94-12.49,14.09-21.81,24.24-30.08a53.18,53.18,0,0,0,14.52-17.79,111.11,111.11,0,0,1,27.8-34.94c4.71-4,4.7-5.18.29-9.31a123.17,123.17,0,0,1-30-42.74c-1.35-3.22-3.22-4.3-6.8-4.49-14.79-.77-29.56-2.18-44.35-3-8.46-.48-17-.57-25.43-.28-2.64.09-5.3,1.83-7.83,3-6.06,2.94-12,6.18-18.09,9a134.24,134.24,0,0,1-12.66,4.69,39.53,39.53,0,0,1-5,1l-.9-1.82,12.71-11.08c-4.3-.93-7.48-1.79-10.71-2.28-5.07-.77-10.22-1.11-15.27-2-1.75-.31-3.3-1.72-4.71-3.16,6.18-2.62,12.93,1,19.44-3.81-3.91-1.43-7.12-2.45-10.21-3.75-3.73-1.57-7.4-3.3-11-5.16-.72-.37-1-1.67-1.43-2.55,1-.19,2.16-.75,3.1-.52,6.26,1.54,12.48,3.24,18.71,4.89l.61-1.12c-2.32-1.62-4.66-3.23-7-4.86-3-2.09-6-4.07-8.79-6.38-.73-.62-.59-2.28-.86-3.47,1.08.1,2.31-.11,3.21.34C468.92,9,474,11.68,479.05,14.32a12.09,12.09,0,0,0,1.74.58c-1.86-5.57-10.27-6.78-8.63-14.9a23,23,0,0,1,3.18,1.85,51.2,51.2,0,0,1,4.27,4.06,29.49,29.49,0,0,0,19.81,10c15.55,1.68,30.77.21,46.13-1,16.55-1.35,33.13-2.37,49.72-3.28a18.94,18.94,0,0,1,15.38,6.55c11.77,13,24.29,25.36,32.84,40.94a9.31,9.31,0,0,0,3.12,3.12c12.24,7.8,21.34,18,26.28,31.93a53.13,53.13,0,0,0,7.77,13.69c2.23,3,5.71,5,9,7.86-11.11,14.34-18.6,30.4-8.14,50.2,2-3.45,3.08-7.52,5.43-8.53s5.81,1.34,9.53,2.42c0-3.7,0-7.11,0-10.52,0-9.66,2.36-18.47,8.54-26.15a11.31,11.31,0,0,0,1.09-13.21c-4.32-7.84.16-13.61,6.19-16.8,11.9-6.28,26-2.47,32.68,9.15,7.33,12.78,10.29,33.76-4,46.34a89.59,89.59,0,0,1-9.88,7.14c-2,1.31-4.24,2.24-6.75,3.55,4.31,3.11,8.87,3.5,12.52.89,11.8-8.44,23.32-17.27,34.72-26.24,3.71-2.91,4.56-7.55,3.87-12-1.92-12.41,5.9-20.48,12.38-29.28,2-2.69,3.14-6,4.63-9,.81-1.65,1.52-3.35,2.27-5l1.5.17a16.58,16.58,0,0,1,.29,4.18c-1,5.79-2.22,11.54-3.36,17.3l-.21,1Z"/><path class="cls-1" d="M514,191c-1.28,1.71-1.82,2.61-2.53,3.35-17.43,18-13.54,49-.55,64.79,5,6,11,11.21,16.79,16.48,2.65,2.41,2.91,4.05.28,6.58-13.86,13.32-27.28,27.13-41.59,39.94-6.19,5.55-14.26,9-21.28,13.63a37.92,37.92,0,0,0-9,7.76c-7.56,9.73-17.22,15.73-29.11,18.78a29.37,29.37,0,0,0-11,5.61c-5,4.12-9.33,9.06-14.23,13.94,2.72,2.11,5.35,4,7.85,6.09,24.43,20.27,37.89,46.59,42.12,77.72,4.25,31.33-2.16,60.49-20.18,86.58-15.33,22.17-35.7,37.69-62.79,42.66-32.26,5.91-60.15-3.23-83.47-26-19.14-18.71-29.87-41.8-33.62-68.16-5.45-38.24,4.07-72.45,29.75-101.28,21.24-23.84,48.15-35.41,80.59-31.84,2.61.29,3.79-.78,5.07-2.67,7.2-10.54,15.19-20.41,25.33-28.3a48.71,48.71,0,0,1,9.89-6.33c11.37-5.06,20.21-13.31,28.54-22.17a31,31,0,0,0,5.75-9.16c7.42-17.74,19.48-29.62,39.37-31.83,3.27-.36,4-1.22,3.45-4.85-2.61-18.5-3.11-36.83,8.28-53.21C494,200.05,502.55,194.35,514,191ZM277.91,479c0,18.87,3.75,36.82,13,53.41,11.92,21.37,29.62,35.11,54.21,37.67s44.92-7,59.61-26.57c21.24-28.22,25.54-59.95,15.38-93.41-7.55-24.84-22.09-44.24-47.73-52.87-22.9-7.72-44.25-4.08-63,11.34C287.26,426.77,278.24,451,277.91,479Z"/><path class="cls-1" d="M914.15,368.62c9.7,0,18.48.14,27.25-.08,3.14-.08,3.25,2.11,3.94,4Q968.11,432.76,990.82,493q12.28,32.55,24.65,65.08c.26.7.65,1.35,1.36,2.81,3.55-8.9,6.88-17.15,10.14-25.44,8.15-20.76,16.19-41.57,24.45-62.29a12,12,0,0,0-.05-9.5q-17.1-44.74-33.93-89.61c-.47-1.23-.79-2.53-1.37-4.44,8.36,0,16.31-.15,24.24.17,1.07,0,2.45,2.3,3,3.79,8.35,22.93,16.57,45.9,24.84,68.86.61,1.68,1.34,3.31,2.24,5.51,9.12-25,18.1-49.47,26.85-74,1.22-3.42,2.79-4.64,6.45-4.46,6.79.34,13.6.1,21.08.1-.6,1.9-1,3.41-1.56,4.87q-16.83,44.63-33.74,89.2a12,12,0,0,0,0,9.49c10.83,27,21.46,54.06,32.17,81.1.75,1.89,1.63,3.72,2.91,6.64,2.31-5.88,4.28-10.69,6.1-15.56Q1163,459,1195.34,372.67c1.09-2.91,2.28-4.28,5.69-4.15,8.31.3,16.64.1,25.64.1-.64,1.91-1.06,3.42-1.64,4.87q-35.61,89.73-71.24,179.44c-5.12,12.88-10.38,25.71-15.39,38.63-1,2.49-2.07,3.52-4.83,3.41-5.6-.24-11.22-.23-16.81,0-2.89.12-4.08-.89-5.15-3.59q-19.32-48.74-38.94-97.36c-.61-1.51-1.31-3-2.2-5-8.5,21.13-16.75,41.66-25,62.19-5.47,13.55-11,27.06-16.39,40.65-.92,2.32-2,3.18-4.59,3.1-6.81-.2-13.62-.06-20.74-.06Z"/><path class="cls-1" d="M27.35,594.73H0V368.63c9.12,0,18.17-.14,27.2.16,1.18,0,2.61,2.14,3.37,3.58q36.06,68,72,136.1c1,2,2.12,4,3.62,6.81,1.2-2.14,2.14-3.75,3-5.39q36.4-68.61,72.71-137.27c1.63-3.09,3.42-4.24,6.93-4.1,7.83.3,15.67.1,23.72.1V594.55H185.71V422.32l-.8-.29c-.71,1.16-1.48,2.29-2.11,3.49q-33.18,62.39-66.26,124.81c-1.68,3.18-3.5,4.21-7.16,4.63-8,.92-12.12-2.19-15.85-9.36-20.55-39.51-41.72-78.7-62.69-118-.9-1.7-1.87-3.35-3.49-6.24Z"/><path class="cls-1" d="M1255.08,368.76h142.78V394H1282.79v73.34h100.14v24.2H1282.8V569.1h117.74v25.49H1255.08Z"/><path class="cls-1" d="M831.61,369v25H716.32v73.44h99.9v24.22h-100v77.49H834.17v25.42H688.48V369Z"/><path class="cls-1" d="M1615,368.81h27.3v200.3H1761.8v25.48H1615Z"/><path class="cls-1" d="M1438.41,368.78h26.95V569.21H1585v25.37H1438.41Z"/><path class="cls-1" d="M1022.78,651v71h-8V633.63c7.33-1.78,8-1.47,11.57,5L1056.78,694c1-1.69,1.84-3,2.6-4.37,9.31-16.79,18.85-33.47,27.78-50.47,2.79-5.3,6-7.49,12-5.71V722H1091V650.89l-.77-.25c-.73,1.2-1.49,2.39-2.17,3.63-8.89,16-17.71,32-26.72,48-.87,1.52-3,3.31-4.42,3.27s-3.49-1.87-4.37-3.43c-8.93-15.79-17.68-31.69-26.49-47.56-.71-1.28-1.51-2.51-2.27-3.77Z"/><path class="cls-1" d="M1266.26,722.08V633h4.36c11.35,0,22.75.64,34.05-.15,16.72-1.18,25.4,16,21.9,29.14a21.54,21.54,0,0,1-11.38,14.36c10.64,4.61,15.81,12.27,15.72,23.27-.08,11.35-8.57,21.7-19.84,22.28C1296.3,722.65,1281.46,722.08,1266.26,722.08Zm8.62-40.94v33.59c10.93,0,21.51.22,32.08-.07,8.64-.24,15.3-7.59,15.56-16.46.25-8.24-5.48-16.58-12.71-16.92C1298.23,680.75,1286.6,681.14,1274.88,681.14Zm-.1-7.86c10.8,0,21.37.54,31.85-.18,7.47-.51,12.55-8.24,12.34-16.56s-5.24-15.22-12.79-15.63c-10.36-.57-20.77-.15-31.4-.15Z"/><path class="cls-1" d="M1681.49,721.91c-4.76,1.29-7.82-.14-10.82-4.12-16.3-21.62-33-43-49.49-64.44-.73-1-1.5-1.86-2.92-3.61v72.35H1610V633.43c3.86-1.2,6.54-.29,9.16,3.18,16.79,22.21,33.82,44.24,50.78,66.31.88,1.14,1.84,2.22,3.44,4.14V633.33h8.16Z"/><path class="cls-1" d="M674.08,633.12c13.23,0,26.11-.52,38.93.14,13.47.7,24.57,16.07,22.84,30.56-1.39,11.7-6.77,20.47-18.93,24.27l20.47,33.5c-7.16,2-8.67,1.49-12.24-4.31-5.16-8.36-10.2-16.8-15.56-25a7,7,0,0,0-4.89-2.74c-7.21-.3-14.45-.12-22.06-.12V722.1h-8.56Zm8.64,48.37c8.79,0,17.1,0,25.41,0,10.19,0,15.85-4.52,18.54-14.43,3.11-11.51-3.6-27.56-20.07-26.29-3.92.3-7.87,0-11.8,0H682.72Z"/><path class="cls-1" d="M1538.74,689.39v32.68h-8.4V633.29c1.3-.1,2.6-.29,3.9-.29,9.69,0,19.44.72,29-.16,21.39-2,36.14,22.82,25.23,43a24.18,24.18,0,0,1-15.4,12.18l20.51,33.55c-7,2.08-8.7,1.46-12.2-4.23-5.07-8.24-10.22-16.43-15.16-24.75-1.38-2.33-2.86-3.38-5.7-3.29C1553.37,689.54,1546.16,689.39,1538.74,689.39Zm.31-7.9c8.64,0,16.8,0,25,0,10.9,0,17.09-5.12,19.27-15.82,2.26-11.07-4.47-23.47-14.18-24.3s-19.84-.19-30-.19Z"/><path class="cls-1" d="M1341.26,676.3c.66-14.32,6.09-27.54,19-36.73,17.35-12.38,39.48-8.55,52.15,8.64,16.88,22.9,11.59,55.1-11.38,69.31a37.44,37.44,0,0,1-47.46-7.26C1345.39,700.85,1341.43,689.85,1341.26,676.3Zm72.47,1a39.73,39.73,0,0,0-9.54-26.3,28.92,28.92,0,0,0-39.59-4.83c-18.58,13.55-19.76,46.49-2.22,61.4,13.93,11.85,33.08,9.41,43.67-5.57A41.37,41.37,0,0,0,1413.73,677.3Z"/><path class="cls-1" d="M423.88,679.17a45.36,45.36,0,0,1-14.83,33.51C392,728.53,366.44,725.79,352.56,707c-16.46-22.31-11.23-54.48,11.17-68.75a36.72,36.72,0,0,1,48,7.16C419.7,654.71,423.84,665.51,423.88,679.17Zm-72.35-4.24c0,12.73,2.87,21.29,8.83,28.83A28.85,28.85,0,0,0,400.87,709c18.52-13.94,19.36-46.42,1.58-61.32-11.19-9.38-25.65-9.89-37.08-.81A36.83,36.83,0,0,0,351.53,674.93Z"/><path class="cls-1" d="M518.94,722.16h-8.59v-88.8h8.29v39.08h51.1V633.28h8.17v88.89h-8V680.89H518.94Z"/><path class="cls-1" d="M1178.87,714.58v7.61h-57.59V633.34h56.42v7.33H1130v32.19h41.54v7.52H1130v34.2Z"/><path class="cls-1" d="M145.93,722.08h-8.2V680.81H86.6v41.26H78.34V633.29h7.92v39.14h51.38V633.24h8.29Z"/><path class="cls-1" d="M299.14,642.83c-1.35,2.29-2.56,4.35-3.89,6.63-9.67-9.07-20.91-10.8-33.09-8.23-7.45,1.57-11.81,6.6-12.35,13.72-.6,7.88,2.09,12.33,10.13,15.07,6.42,2.18,13.11,3.56,19.67,5.36a78,78,0,0,1,7.79,2.41c12.1,4.66,17.16,12.2,16.1,23.76-1,10.49-8.38,18.23-20,20.47-14.25,2.74-27.68.57-40-7.31-6.52-4.16-6.64-5-1.15-11.24,10.34,9.93,22.9,12.79,36.8,11.4,11.53-1.16,18.12-10.21,14.56-20.08-1.69-4.69-5.4-7.34-9.76-8.84-6.27-2.15-12.75-3.73-19.12-5.6-3.34-1-6.7-1.88-9.94-3.1-7.58-2.87-13.09-7.72-13.85-16.31-.83-9.54,1.92-17.73,10.22-23.25C264.58,628.81,287.25,631.19,299.14,642.83Z"/><path class="cls-1" d="M2.61,722.05V633.23c13.19,0,26.25-.85,39.14.23,14.47,1.21,24.8,18.68,21.44,34-2.53,11.6-11.47,22.78-27.45,22-8.11-.42-16.27-.07-24.79-.07v32.66ZM11,681.11a10.34,10.34,0,0,0,1.67.34c8.15,0,16.31.1,24.47,0,10.05-.1,16.25-6.12,18-17.26,1.51-9.69-4.09-21.24-12.67-22.35-10.29-1.33-20.89-.32-31.45-.32Z"/><path class="cls-1" d="M1760.2,633.29v7.51h-48v32.06H1754v7.51h-41.84v34h49.1v7.5h-57.48V633.29Z"/><path class="cls-1" d="M1501.32,633.16h8.36c.08,1.48.23,2.8.21,4.12-.27,17.4-.15,34.82-1,52.18-.48,9.53-4.15,18.39-11.52,25a35.32,35.32,0,0,1-58.16-19,91.38,91.38,0,0,1-1.93-17.54c-.26-14.8-.09-29.61-.09-44.66h8.31c0,7.36-.2,14.58,0,21.8.43,12.83.31,25.76,2,38.44,1.31,9.92,7.29,17.77,17.66,20.43s20,1.47,27.61-6.8c5.49-5.94,7.79-13.39,8-21.22.46-15.89.39-31.79.53-47.68C1501.34,636.57,1501.32,634.94,1501.32,633.16Z"/><path class="cls-1" d="M821.65,722c-8.65,1-8.65,1-11.59-6.41-2.35-5.89-4.82-11.74-7-17.69-.92-2.5-2.13-3.51-4.91-3.47q-15.89.25-31.79,0c-2.74,0-4,.89-4.93,3.43-2.09,5.82-4.53,11.52-6.79,17.28-3,7.64-3,7.65-11.65,7,.45-1.28.81-2.5,1.28-3.68q16.5-41,33-82c.92-2.29,1.82-4,4.78-3.58,2.06.27,3.94-.18,5,2.53C798.47,664.21,810,692.93,821.65,722Zm-22.06-34.65c-5.76-14.66-11.37-28.93-17.31-44.06l-17.52,44.06Z"/><path class="cls-1" d="M600.17,633h56.39v7.76h-48v32.1h41.83v7.37H608.69v34.2h48.94v7.49H600.17Z"/><path class="cls-1" d="M842.79,689.39v32.75h-8.18v-88.9c13.11,0,26.16-.91,39,.24,15.14,1.34,25.22,20.32,20.48,36.48-3.64,12.4-12.86,19.39-25.7,19.42C860,689.4,851.55,689.39,842.79,689.39Zm.17-48v40.14c8.38,0,16.52,0,24.67,0,1.81,0,3.91.39,5.39-.36,3.27-1.65,7.24-3.25,9.07-6.08a31.65,31.65,0,0,0,4.64-13.42c.95-9-5.45-19.31-13-20C863.57,640.63,853.26,641.35,843,641.35Z"/><path class="cls-1" d="M941.41,722.15h-8.65c0-9.74.17-19.25-.1-28.74a18.58,18.58,0,0,0-2.28-8.44c-9.26-15.94-18.79-31.72-28.22-47.56-.75-1.26-1.42-2.56-2.19-3.95,8.5-1.24,8.51-1.24,12.41,5.42,8.09,13.8,16.18,27.61,24.6,42,1.12-1.74,2-3.07,2.83-4.44L961.94,639c3.93-6.65,3.94-6.65,12.52-5.55-2.45,4.13-4.81,8.13-7.18,12.12-7.95,13.38-16,26.71-23.78,40.17a15.7,15.7,0,0,0-2,7.18C941.28,702.53,941.41,712.18,941.41,722.15Z"/><path class="cls-1" d="M196.6,680.88c8.43-14.29,16.51-28,24.58-41.62,3.93-6.65,3.93-6.65,12.72-6-.91,1.61-1.66,3-2.46,4.35-9.58,16.12-19.23,32.2-28.7,48.39a14.62,14.62,0,0,0-1.84,6.76c-.2,9.67-.09,19.36-.09,29.34h-8.65c0-9.32.25-18.52-.12-27.68a22.86,22.86,0,0,0-2.74-10.15c-9-15.73-18.44-31.26-27.71-46.86-.76-1.27-1.45-2.57-2.22-3.95,8.51-1.21,8.51-1.21,12.42,5.45q11,18.79,22,37.58C194.56,677.76,195.39,679,196.6,680.88Z"/><path class="cls-1" d="M458.07,640.86H427.52v-7.64h69.37v7.44H466.4v81.42h-8.33Z"/><path class="cls-1" d="M1203.57,714.57h49.67v7.53h-57.63V633.26h8Z"/><path class="cls-1" d="M326.79,722.15h-8.22V633.34h8.22Z"/></g></g></svg>